<!-- Generator: Adobe Illustrator 24.1.0, SVG Export Plug-In  -->
<svg version="1.1" xmlns="http://www.w3.org/2000/svg" xmlns:xlink="http://www.w3.org/1999/xlink" x="0px" y="0px" width="468.2px"
	 height="111.9px" viewBox="0 0 468.2 111.9" style="enable-background:new 0 0 468.2 111.9;" xml:space="preserve">
<style type="text/css">
	.st0{fill:#FFFFFF;}
</style>
<defs>
</defs>
<g>
	<polygon class="st0" points="157.1,2.8 157.1,29.7 152,29.7 138.6,13.4 138.6,29.7 132.5,29.7 132.5,2.8 137.6,2.8 151,19.2 
		151,2.8 	"/>
	<path class="st0" d="M178.8,19.2l-4.3-10.3l-4.3,10.3H178.8z M180.8,24h-12.5l-2.4,5.8h-6.4l12-26.9h6.1l12,26.9h-6.5L180.8,24z"/>
	<polygon class="st0" points="194.2,7.9 185.6,7.9 185.6,2.8 209.1,2.8 209.1,7.9 200.5,7.9 200.5,29.7 194.2,29.7 	"/>
	<rect x="212.7" y="2.8" class="st0" width="6.2" height="26.9"/>
	<path class="st0" d="M242.1,23.8c1.3-0.7,2.3-1.7,3-3.1c0.7-1.3,1.1-2.8,1.1-4.5c0-1.7-0.4-3.1-1.1-4.5c-0.7-1.3-1.7-2.3-3-3.1
		c-1.3-0.7-2.7-1.1-4.3-1.1c-1.6,0-3,0.4-4.3,1.1c-1.3,0.7-2.3,1.7-3,3.1c-0.7,1.3-1.1,2.8-1.1,4.5c0,1.7,0.4,3.2,1.1,4.5
		c0.7,1.3,1.7,2.3,3,3.1c1.3,0.7,2.7,1.1,4.3,1.1C239.4,24.9,240.8,24.5,242.1,23.8 M230.2,28.4c-2.2-1.2-4-2.9-5.3-5
		c-1.3-2.1-1.9-4.5-1.9-7.1c0-2.6,0.6-5,1.9-7.1c1.3-2.1,3-3.8,5.3-5c2.2-1.2,4.8-1.8,7.5-1.8c2.8,0,5.3,0.6,7.5,1.8
		c2.2,1.2,4,2.9,5.3,5c1.3,2.1,1.9,4.5,1.9,7.1c0,2.6-0.6,5-1.9,7.1c-1.3,2.1-3,3.8-5.3,5c-2.2,1.2-4.7,1.8-7.5,1.8
		C235,30.2,232.5,29.6,230.2,28.4"/>
	<polygon class="st0" points="280.7,2.8 280.7,29.7 275.6,29.7 262.2,13.4 262.2,29.7 256.1,29.7 256.1,2.8 261.2,2.8 274.6,19.2 
		274.6,2.8 	"/>
	<path class="st0" d="M302.4,19.2l-4.3-10.3l-4.3,10.3H302.4z M304.4,24h-12.5l-2.4,5.8h-6.4l12-26.9h6.1l12,26.9h-6.5L304.4,24z"/>
	<polygon class="st0" points="315.7,2.8 321.9,2.8 321.9,24.7 335.8,24.7 335.8,29.7 315.7,29.7 	"/>
	<path class="st0" d="M148.2,58.8L144,48.5l-4.3,10.3H148.2z M150.2,63.5h-12.5l-2.4,5.8h-6.4l12-26.9h6.1l12,26.9h-6.5L150.2,63.5z
		"/>
	<path class="st0" d="M164.9,68.9c-2-0.6-3.6-1.3-4.8-2.2l2.1-4.7c1.2,0.8,2.5,1.5,4.1,2c1.6,0.5,3.2,0.8,4.8,0.8
		c1.8,0,3.1-0.3,3.9-0.8c0.8-0.5,1.3-1.2,1.3-2.1c0-0.6-0.2-1.2-0.7-1.6c-0.5-0.4-1.1-0.8-1.9-1c-0.8-0.3-1.8-0.5-3.2-0.8
		c-2-0.5-3.7-1-5-1.5c-1.3-0.5-2.4-1.3-3.4-2.3c-0.9-1.1-1.4-2.5-1.4-4.3c0-1.6,0.4-3,1.3-4.2c0.8-1.3,2.1-2.3,3.8-3
		c1.7-0.7,3.8-1.1,6.2-1.1c1.7,0,3.4,0.2,5,0.6c1.6,0.4,3.1,1,4.3,1.8l-1.9,4.7c-2.5-1.4-5-2.1-7.5-2.1c-1.7,0-3,0.3-3.9,0.8
		c-0.8,0.6-1.2,1.3-1.2,2.2c0,0.9,0.5,1.6,1.4,2.1c1,0.4,2.4,0.9,4.4,1.3c2,0.5,3.7,1,5,1.5c1.3,0.5,2.4,1.3,3.4,2.3
		c0.9,1,1.4,2.5,1.4,4.3c0,1.5-0.4,2.9-1.3,4.2c-0.9,1.3-2.1,2.3-3.9,3c-1.7,0.7-3.8,1.1-6.3,1.1C168.9,69.8,166.9,69.5,164.9,68.9"
		/>
	<path class="st0" d="M189.1,68.9c-2-0.6-3.6-1.3-4.8-2.2l2.1-4.7c1.2,0.8,2.5,1.5,4.1,2c1.6,0.5,3.2,0.8,4.8,0.8
		c1.8,0,3.1-0.3,3.9-0.8c0.8-0.5,1.3-1.2,1.3-2.1c0-0.6-0.2-1.2-0.7-1.6c-0.5-0.4-1.1-0.8-1.9-1c-0.8-0.3-1.8-0.5-3.2-0.8
		c-2-0.5-3.7-1-5-1.5c-1.3-0.5-2.4-1.3-3.4-2.3c-0.9-1.1-1.4-2.5-1.4-4.3c0-1.6,0.4-3,1.3-4.2c0.8-1.3,2.1-2.3,3.8-3
		c1.7-0.7,3.8-1.1,6.2-1.1c1.7,0,3.4,0.2,5,0.6c1.6,0.4,3.1,1,4.3,1.8l-1.9,4.7c-2.5-1.4-5-2.1-7.5-2.1c-1.7,0-3,0.3-3.9,0.8
		c-0.8,0.6-1.2,1.3-1.2,2.2c0,0.9,0.5,1.6,1.4,2.1c1,0.4,2.4,0.9,4.4,1.3c2,0.5,3.7,1,5,1.5c1.3,0.5,2.4,1.3,3.4,2.3
		c0.9,1,1.4,2.5,1.4,4.3c0,1.5-0.4,2.9-1.3,4.2c-0.9,1.3-2.1,2.3-3.9,3c-1.7,0.7-3.8,1.1-6.3,1.1C193.1,69.8,191.1,69.5,189.1,68.9"
		/>
	<path class="st0" d="M227.7,63.4c1.3-0.7,2.3-1.7,3-3.1c0.7-1.3,1.1-2.8,1.1-4.5c0-1.7-0.4-3.1-1.1-4.5c-0.7-1.3-1.7-2.3-3-3.1
		c-1.3-0.7-2.7-1.1-4.3-1.1c-1.6,0-3,0.4-4.3,1.1c-1.3,0.7-2.3,1.7-3,3.1c-0.7,1.3-1.1,2.8-1.1,4.5c0,1.7,0.4,3.2,1.1,4.5
		c0.7,1.3,1.7,2.3,3,3.1c1.3,0.7,2.7,1.1,4.3,1.1C225,64.5,226.4,64.1,227.7,63.4 M215.9,68c-2.2-1.2-4-2.9-5.3-5
		c-1.3-2.1-1.9-4.5-1.9-7.1c0-2.6,0.6-5,1.9-7.1c1.3-2.1,3-3.8,5.3-5c2.2-1.2,4.8-1.8,7.5-1.8c2.8,0,5.3,0.6,7.5,1.8
		c2.2,1.2,4,2.9,5.3,5c1.3,2.1,1.9,4.5,1.9,7.1c0,2.6-0.6,5-1.9,7.1c-1.3,2.1-3,3.8-5.3,5c-2.2,1.2-4.7,1.8-7.5,1.8
		C220.6,69.8,218.1,69.2,215.9,68"/>
	<path class="st0" d="M247.8,68c-2.2-1.2-4-2.8-5.2-5c-1.3-2.1-1.9-4.5-1.9-7.2c0-2.7,0.6-5.1,1.9-7.2c1.3-2.1,3-3.8,5.2-5
		c2.2-1.2,4.7-1.8,7.5-1.8c2.3,0,4.4,0.4,6.3,1.2c1.9,0.8,3.5,2,4.7,3.5l-4,3.7c-1.8-2.1-4.1-3.2-6.8-3.2c-1.7,0-3.1,0.4-4.5,1.1
		c-1.3,0.7-2.3,1.7-3.1,3.1c-0.7,1.3-1.1,2.8-1.1,4.5c0,1.7,0.4,3.2,1.1,4.5c0.7,1.3,1.7,2.3,3.1,3.1c1.3,0.7,2.8,1.1,4.5,1.1
		c2.7,0,4.9-1.1,6.8-3.2l4,3.7c-1.3,1.6-2.9,2.8-4.8,3.6c-1.9,0.8-4,1.2-6.3,1.2C252.5,69.8,250,69.2,247.8,68"/>
	<rect x="269.8" y="42.4" class="st0" width="6.2" height="26.9"/>
	<path class="st0" d="M298.2,58.8l-4.3-10.3l-4.3,10.3H298.2z M300.1,63.5h-12.5l-2.4,5.8h-6.4l12-26.9h6.1l12,26.9h-6.5L300.1,63.5
		z"/>
	<polygon class="st0" points="313.6,47.5 304.9,47.5 304.9,42.4 328.4,42.4 328.4,47.5 319.8,47.5 319.8,69.3 313.6,69.3 	"/>
	<rect x="332" y="42.4" class="st0" width="6.2" height="26.9"/>
	<path class="st0" d="M361.4,63.4c1.3-0.7,2.3-1.7,3-3.1c0.7-1.3,1.1-2.8,1.1-4.5c0-1.7-0.4-3.1-1.1-4.5c-0.7-1.3-1.7-2.3-3-3.1
		c-1.3-0.7-2.7-1.1-4.3-1.1s-3,0.4-4.3,1.1c-1.3,0.7-2.3,1.7-3,3.1c-0.7,1.3-1.1,2.8-1.1,4.5c0,1.7,0.4,3.2,1.1,4.5
		c0.7,1.3,1.7,2.3,3,3.1c1.3,0.7,2.7,1.1,4.3,1.1S360.1,64.1,361.4,63.4 M349.5,68c-2.2-1.2-4-2.9-5.3-5c-1.3-2.1-1.9-4.5-1.9-7.1
		c0-2.6,0.6-5,1.9-7.1c1.3-2.1,3-3.8,5.3-5c2.2-1.2,4.8-1.8,7.5-1.8s5.3,0.6,7.5,1.8c2.2,1.2,4,2.9,5.3,5c1.3,2.1,1.9,4.5,1.9,7.1
		c0,2.6-0.6,5-1.9,7.1c-1.3,2.1-3,3.8-5.3,5c-2.2,1.2-4.7,1.8-7.5,1.8S351.8,69.2,349.5,68"/>
	<polygon class="st0" points="400,42.4 400,69.3 394.9,69.3 381.5,53 381.5,69.3 375.4,69.3 375.4,42.4 380.5,42.4 393.9,58.7 
		393.9,42.4 	"/>
	<path class="st0" d="M433.5,63.4c1.3-0.7,2.3-1.7,3-3.1c0.7-1.3,1.1-2.8,1.1-4.5c0-1.7-0.4-3.1-1.1-4.5c-0.7-1.3-1.7-2.3-3-3.1
		c-1.3-0.7-2.7-1.1-4.3-1.1c-1.6,0-3,0.4-4.3,1.1c-1.3,0.7-2.3,1.7-3,3.1c-0.7,1.3-1.1,2.8-1.1,4.5c0,1.7,0.4,3.2,1.1,4.5
		c0.7,1.3,1.7,2.3,3,3.1c1.3,0.7,2.7,1.1,4.3,1.1C430.8,64.5,432.2,64.1,433.5,63.4 M421.6,68c-2.2-1.2-4-2.9-5.3-5
		c-1.3-2.1-1.9-4.5-1.9-7.1c0-2.6,0.6-5,1.9-7.1c1.3-2.1,3-3.8,5.3-5c2.2-1.2,4.8-1.8,7.5-1.8s5.3,0.6,7.5,1.8c2.2,1.2,4,2.9,5.3,5
		c1.3,2.1,1.9,4.5,1.9,7.1c0,2.6-0.6,5-1.9,7.1c-1.3,2.1-3,3.8-5.3,5c-2.2,1.2-4.7,1.8-7.5,1.8S423.9,69.2,421.6,68"/>
	<polygon class="st0" points="454.1,47.4 454.1,54.5 466.5,54.5 466.5,59.5 454.1,59.5 454.1,69.3 447.8,69.3 447.8,42.4 
		468.2,42.4 468.2,47.4 	"/>
	<path class="st0" d="M148,88.3c-1-0.8-2.4-1.2-4.3-1.2h-5.1v9.4h5.1c1.9,0,3.3-0.4,4.3-1.2c1-0.8,1.5-2,1.5-3.5
		C149.5,90.2,149,89.1,148,88.3 M149.6,108.9l-5.2-7.5h-0.3h-5.4v7.5h-6.2V82h11.6c2.4,0,4.5,0.4,6.2,1.2c1.8,0.8,3.1,1.9,4.1,3.4
		c0.9,1.5,1.4,3.2,1.4,5.2c0,2-0.5,3.7-1.4,5.2c-1,1.4-2.3,2.6-4.1,3.3l6,8.6H149.6z"/>
	<polygon class="st0" points="181,103.9 181,108.9 160.2,108.9 160.2,82 180.5,82 180.5,87 166.4,87 166.4,92.8 178.8,92.8 
		178.8,97.7 166.4,97.7 166.4,103.9 	"/>
	<path class="st0" d="M202.1,98.4l-4.3-10.3l-4.3,10.3H202.1z M204,103.1h-12.5l-2.4,5.8h-6.4l12-26.9h6.1l12,26.9h-6.5L204,103.1z"
		/>
	<polygon class="st0" points="215.3,82 221.6,82 221.6,103.8 235.1,103.8 235.1,108.9 215.3,108.9 	"/>
	<polygon class="st0" points="240.3,87.1 231.7,87.1 231.7,82 255.1,82 255.1,87.1 246.5,87.1 246.5,108.9 240.3,108.9 	"/>
	<path class="st0" d="M274.8,103c1.3-0.7,2.3-1.7,3-3.1c0.7-1.3,1.1-2.8,1.1-4.5c0-1.7-0.4-3.1-1.1-4.5c-0.7-1.3-1.7-2.3-3-3.1
		c-1.3-0.7-2.7-1.1-4.3-1.1c-1.6,0-3,0.4-4.3,1.1c-1.3,0.7-2.3,1.7-3,3.1c-0.7,1.3-1.1,2.8-1.1,4.5c0,1.7,0.4,3.2,1.1,4.5
		c0.7,1.3,1.7,2.3,3,3.1c1.3,0.7,2.7,1.1,4.3,1.1C272.1,104.1,273.5,103.7,274.8,103 M262.9,107.5c-2.2-1.2-4-2.9-5.3-5
		c-1.3-2.1-1.9-4.5-1.9-7.1c0-2.6,0.6-5,1.9-7.1c1.3-2.1,3-3.8,5.3-5c2.2-1.2,4.8-1.8,7.5-1.8c2.8,0,5.3,0.6,7.5,1.8
		c2.2,1.2,4,2.9,5.3,5c1.3,2.1,1.9,4.5,1.9,7.1c0,2.6-0.6,5-1.9,7.1c-1.3,2.1-3,3.8-5.3,5c-2.2,1.2-4.7,1.8-7.5,1.8
		C267.7,109.4,265.2,108.8,262.9,107.5"/>
	<path class="st0" d="M304.7,88.3c-1-0.8-2.4-1.2-4.3-1.2h-5.1v9.4h5.1c1.9,0,3.3-0.4,4.3-1.2c1-0.8,1.5-2,1.5-3.5
		C306.1,90.2,305.6,89.1,304.7,88.3 M306.2,108.9l-5.2-7.5h-0.3h-5.4v7.5h-6.2V82h11.6c2.4,0,4.5,0.4,6.2,1.2
		c1.8,0.8,3.1,1.9,4.1,3.4c0.9,1.5,1.4,3.2,1.4,5.2c0,2-0.5,3.7-1.4,5.2c-1,1.4-2.3,2.6-4.1,3.3l6,8.6H306.2z"/>
	<path class="st0" d="M319.6,108.5c-2-0.6-3.6-1.3-4.8-2.2l2.1-4.7c1.2,0.8,2.5,1.5,4.1,2c1.6,0.5,3.2,0.8,4.8,0.8
		c1.8,0,3.1-0.3,3.9-0.8c0.8-0.5,1.3-1.2,1.3-2.1c0-0.6-0.2-1.2-0.7-1.6c-0.5-0.4-1.1-0.8-1.9-1c-0.8-0.3-1.8-0.5-3.2-0.8
		c-2-0.5-3.7-1-5-1.5c-1.3-0.5-2.4-1.3-3.4-2.3c-0.9-1.1-1.4-2.5-1.4-4.3c0-1.6,0.4-3,1.3-4.2c0.8-1.3,2.1-2.3,3.8-3
		c1.7-0.7,3.8-1.1,6.2-1.1c1.7,0,3.4,0.2,5,0.6c1.6,0.4,3.1,1,4.3,1.8l-1.9,4.7c-2.5-1.4-5-2.1-7.5-2.1c-1.7,0-3,0.3-3.9,0.8
		c-0.8,0.6-1.2,1.3-1.2,2.2s0.5,1.6,1.4,2.1c1,0.4,2.4,0.9,4.4,1.3c2,0.5,3.7,1,5,1.5c1.3,0.5,2.4,1.3,3.4,2.3
		c0.9,1,1.4,2.5,1.4,4.3c0,1.5-0.4,2.9-1.3,4.2c-0.9,1.3-2.1,2.3-3.9,3c-1.7,0.7-3.8,1.1-6.3,1.1
		C323.7,109.4,321.6,109.1,319.6,108.5"/>
	<path class="st0" d="M348,88.3c0.5,0,0.9-0.1,1.2-0.3c0.3-0.2,0.4-0.6,0.4-1c0-0.4-0.1-0.8-0.4-1c-0.3-0.2-0.7-0.4-1.2-0.4h-1.3
		v2.7H348z M351.5,88.6c-0.3,0.5-0.7,0.8-1.2,1.1l1.9,2.9h-2.3l-1.6-2.5h-0.1h-1.5v2.5h-2.3v-8.7h3.8c1.2,0,2.1,0.3,2.8,0.8
		c0.7,0.6,1,1.3,1,2.3C351.9,87.6,351.8,88.2,351.5,88.6 M351,93.8c1-0.6,1.7-1.4,2.3-2.4c0.6-1,0.8-2.1,0.8-3.3
		c0-1.2-0.3-2.3-0.8-3.3c-0.5-1-1.3-1.7-2.3-2.3c-1-0.6-2.1-0.8-3.3-0.8c-1.2,0-2.3,0.3-3.3,0.9c-1,0.6-1.7,1.3-2.3,2.3
		c-0.6,1-0.8,2.1-0.8,3.3c0,1.2,0.3,2.3,0.8,3.3c0.6,1,1.3,1.8,2.3,2.3c1,0.6,2,0.9,3.2,0.9C349,94.7,350.1,94.4,351,93.8
		 M351.8,81.4c1.2,0.7,2.1,1.6,2.8,2.8s1,2.5,1,4c0,1.5-0.4,2.8-1.1,4c-0.7,1.2-1.7,2.2-2.9,2.9c-1.2,0.7-2.5,1.1-4,1.1
		c-1.5,0-2.8-0.4-4-1.1c-1.2-0.7-2.2-1.7-2.8-2.9c-0.7-1.2-1-2.5-1-4c0-1.4,0.3-2.8,1-4c0.7-1.2,1.6-2.2,2.9-2.9
		c1.2-0.7,2.6-1.1,4-1.1C349.3,80.4,350.6,80.7,351.8,81.4"/>
	<path class="st0" d="M104.6,0H0v111.9h104.6V0z M44.7,96.5H14.9V14.7h29.8L44.7,96.5z M67.7,14.8c10.6-0.1,21.5,7.4,21.6,21
		c0.1,16.3-14.7,19.9-21.6,19.8l-11.6,0l-0.1-40.8H67.7z M56,96.7V56.2l40.8,40.5H56z"/>
</g>
</svg>
